<svg xmlns="http://www.w3.org/2000/svg" version="1.1" viewBox="-5.0 -10.0 110.0 135.0">
 <path d="m71.195 64.957 7.9141 9.5547c1.2656-0.039063 2.5469 0.42188 3.5117 1.3906 1.8555 1.8555 1.8555 4.8672 0 6.7227-1.8555 1.8555-4.8672 1.8555-6.7227 0-0.96484-0.96484-1.4297-2.2422-1.3906-3.5117l-9.5547-7.9141c1.5469-2.5508 3.6914-4.6914 6.2383-6.2383zm-3.3203-4.5977-44.375-44.375-7.0547 0.45703-0.45703 7.0547 44.375 44.375c-1.8008 2.832-3.0312 6.0664-3.5312 9.5352l3.918 0.5625c1.25-8.6953 8.5312-15.973 17.227-17.227l-0.5625-3.918c-3.4727 0.5-6.7031 1.7266-9.5352 3.5273z" fill-rule="evenodd"/>
<text x="0.0" y="117.5" font-size="5.0" font-weight="bold" font-family="Arbeit Regular, Helvetica, Arial-Unicode, Arial, Sans-serif" fill="#000000">Created by sam maulidna</text><text x="0.0" y="122.5" font-size="5.0" font-weight="bold" font-family="Arbeit Regular, Helvetica, Arial-Unicode, Arial, Sans-serif" fill="#000000">from Noun Project</text></svg>