<svg xmlns="http://www.w3.org/2000/svg" version="1.1" viewBox="-5.0 -10.0 110.0 135.0">
 <path d="m78.551 89.789h-6.1133l-6.332-50.547 1.8359-3.668c0.87891-1.7539 1.332-3.6875 1.332-5.6523v-11.438c0-0.98828-0.80078-1.7891-1.7891-1.7891h-6.0352c-0.98828 0-1.7891 0.80078-1.7891 1.7891v7.9336h-4.6953v-7.9336c0-0.98828-0.80078-1.7891-1.7891-1.7891h-2.0117v-4.25h9.0547c0.98828 0 1.7891-0.80078 1.7891-1.7891v-5.3633c0-0.98828-0.80078-1.7891-1.7891-1.7891h-9.0547l0.003907-0.55859c0-0.22266-0.22266-0.44531-0.44531-0.44531h-1.2305c-0.24609 0-0.44531 0.20312-0.44531 0.44531v13.75h-2.0117c-0.98828 0-1.7891 0.80078-1.7891 1.7891v7.9336h-4.6953v-7.9336c0-0.98828-0.80078-1.7891-1.7891-1.7891h-6.0352c-0.98828 0-1.7891 0.80078-1.7891 1.7891v11.324c0 1.9609 0.45703 3.8945 1.332 5.6523l1.7578 3.5117-6.3672 50.816h-6.1133c-1.0078 0-1.7891 0.78125-1.7891 1.7891v4.1367c0 1.0078 0.78125 1.7891 1.7891 1.7891h56.887c1.0078 0 1.7891-0.78125 1.7891-1.7891v-4.1367c0.11719-1.0078-0.66797-1.7891-1.6719-1.7891zm-34.312-37.711c0-3.2422 2.6836-5.9219 5.9219-5.9219 1.6758 0 3.1289 0.67188 4.1367 1.6758 1.1172 1.1172 1.7891 2.5703 1.7891 4.2461v9.0547h-0.11328c0 1.0078-0.78125 1.7891-1.7891 1.7891h-8.1602c-1.0078 0-1.7891-0.78125-1.7891-1.7891z"/>
<text x="0.0" y="117.5" font-size="5.0" font-weight="bold" font-family="Arbeit Regular, Helvetica, Arial-Unicode, Arial, Sans-serif" fill="#000000">Created by Liam Gabe</text><text x="0.0" y="122.5" font-size="5.0" font-weight="bold" font-family="Arbeit Regular, Helvetica, Arial-Unicode, Arial, Sans-serif" fill="#000000">from Noun Project</text></svg>