<svg xmlns="http://www.w3.org/2000/svg" version="1.1" viewBox="-5.0 -10.0 110.0 135.0">
 <path d="m61.711 68.301 6.5898-6.5898 7.3047 9.6055-0.12109 0.12109c-0.98828 0.13672-1.9414 0.58984-2.6992 1.3477-0.75781 0.75781-1.2109 1.7148-1.3477 2.6992l-0.12109 0.12109zm2.7109-11.398c-10.938-11.062-31.828-39.344-46.645-39.125-0.21484 14.816 28.062 35.703 39.125 46.641l-2.5156 2.5156-1.0117 7.0156 3.918 0.5625 0.82031-5.7109 10.691-10.691 5.7109-0.82031-0.5625-3.918-7.0156 1.0117-2.5156 2.5156zm9.6914 17.211c1.8555-1.8555 4.8672-1.8555 6.7227 0 1.8555 1.8555 1.8555 4.8672 0 6.7227-1.8555 1.8555-4.8672 1.8555-6.7227 0-1.8555-1.8555-1.8555-4.8672 0-6.7227z" fill-rule="evenodd"/>
<text x="0.0" y="117.5" font-size="5.0" font-weight="bold" font-family="Arbeit Regular, Helvetica, Arial-Unicode, Arial, Sans-serif" fill="#000000">Created by sam maulidna</text><text x="0.0" y="122.5" font-size="5.0" font-weight="bold" font-family="Arbeit Regular, Helvetica, Arial-Unicode, Arial, Sans-serif" fill="#000000">from Noun Project</text></svg>